<?xml version="1.0" encoding="UTF-8"?>
<svg xmlns="http://www.w3.org/2000/svg" width="800" height="800" viewBox="0 0 800 800">
  <title>Logo on transparent background</title>
  <desc>Lime circle with black lowercase t, transparent background, no padding.</desc>
  <circle cx="400" cy="400" r="400" fill="#cef50c"/>
  <path d="M 357.65 190.32 L 347.73 194.29 L 336.82 204.21 L 330.87 218.09 L 329.88 223.05 L 329.88 303.39 L 327.89 305.37 L 292.19 305.37 L 291.20 306.36 L 288.22 305.37 L 287.23 306.36 L 282.27 306.36 L 274.34 310.33 L 269.38 318.26 L 268.38 323.22 L 268.38 378.76 L 269.38 383.72 L 271.36 387.69 L 276.32 392.65 L 282.27 395.62 L 327.89 395.62 L 329.88 397.61 L 329.88 552.33 L 330.87 553.32 L 332.85 570.18 L 338.80 588.03 L 344.75 599.93 L 355.66 614.81 L 363.60 622.74 L 377.48 632.66 L 392.36 639.60 L 405.25 643.57 L 415.17 645.55 L 422.11 645.55 L 423.10 646.54 L 487.57 646.54 L 497.49 643.57 L 504.43 637.62 L 508.40 628.69 L 509.39 623.73 L 509.39 580.09 L 508.40 579.10 L 508.40 574.14 L 505.42 568.19 L 500.46 563.23 L 496.49 561.25 L 487.57 559.27 L 474.68 559.27 L 463.77 555.30 L 457.82 550.34 L 450.87 539.43 L 448.89 531.50 L 448.89 523.56 L 447.90 522.57 L 447.90 397.61 L 449.88 395.62 L 501.45 395.62 L 508.40 392.65 L 513.35 387.69 L 516.33 378.76 L 516.33 321.24 L 515.34 317.27 L 510.38 310.33 L 503.44 306.36 L 498.48 306.36 L 497.49 305.37 L 496.49 306.36 L 490.54 306.36 L 489.55 305.37 L 448.89 305.37 L 447.90 304.38 L 447.90 219.09 L 443.93 205.20 L 435.00 195.28 L 427.07 191.32 L 419.14 189.33 L 363.60 189.33 L 362.60 190.32 Z" fill="#000000"/>
</svg>
